<svg width="80" height="80" viewBox="0 0 80 80" xmlns="http://www.w3.org/2000/svg">
<path fill="currentColor" d="M40,7c18.2,0,33,14.8,33,33S58.2,73,40,73S7,58.2,7,40S21.8,7,40,7 M40,0C17.9,0,0,17.9,0,40s17.9,40,40,40 s40-17.9,40-40S62.1,0,40,0L40,0z"/>
<path fill="currentColor" d="M58.7,36.5H43.5V21.3c0-1.9-1.6-3.5-3.5-3.5c-1.9,0-3.5,1.6-3.5,3.5v15.2H21.3c-1.9,0-3.5,1.6-3.5,3.5	s1.6,3.5,3.5,3.5h15.2v15.2c0,1.9,1.6,3.5,3.5,3.5c1.9,0,3.5-1.6,3.5-3.5V43.5h15.2c1.9,0,3.5-1.6,3.5-3.5S60.6,36.5,58.7,36.5z"/>
</svg>
